<?xml version="1.0" encoding="utf-8"?>
<!-- Generator: Adobe Illustrator 27.1.1, SVG Export Plug-In . SVG Version: 6.00 Build 0)  -->
<svg version="1.1" id="Lager_1" xmlns="http://www.w3.org/2000/svg" xmlns:xlink="http://www.w3.org/1999/xlink" x="0px" y="0px"
	 viewBox="0 0 271.71 239.17" style="enable-background:new 0 0 271.71 239.17;" xml:space="preserve">
<style type="text/css">
	.st0{fill:#FFFFFF;}
</style>
<g>
	<path class="st0" d="M135.86,0.03c39.97,0,79.93,0,119.9,0c6.49,0,13,4.75,14.8,10.7c0.79,2.61,1.04,5.46,1.08,8.21
		c0.12,10.48,0.06,20.96,0.04,31.44c-0.02,9.88-0.09,19.75-0.09,29.63c0,9.88,0.08,19.75,0.08,29.63c0,9.88-0.08,19.75-0.08,29.63
		c0,9.88,0.08,19.75,0.08,29.63c0,9.88-0.07,19.75-0.09,29.63c-0.02,7.79-0.11,15.58,0.02,23.37c0.13,7.94-3.57,13.28-10.72,16.34
		c-1.37,0.58-2.95,0.91-4.44,0.92c-80.37,0.04-160.74,0.06-241.11-0.02c-4.47,0-8.26-2.19-11.24-5.56
		c-2.87-3.24-4.13-7.07-4.09-11.4c0.07-9.71,0.11-19.42,0.11-29.13c0-10.64-0.09-21.29-0.09-31.93c0-9.71,0.09-19.42,0.09-29.13
		c0-9.82-0.09-19.64-0.09-29.46c0-9.88,0.09-19.75,0.09-29.63c0-9.6-0.09-19.2-0.09-28.8c0-9.38,0.1-18.76,0.09-28.15
		C0.1,9.48,4.32,3.66,9.99,1.38C12.27,0.46,14.61,0,17.11,0C56.69,0.04,96.28,0.03,135.86,0.03z M16.38,222.67c0.72,0,1.21,0,1.7,0
		c78.45,0,156.89,0,235.34,0.03c1.45,0,1.95-0.3,1.94-1.89c-0.07-13.94-0.05-27.88-0.04-41.82c0.01-16.52,0.05-33.04,0.05-49.55
		c0-16.41-0.04-32.82-0.05-49.22c-0.01-11.52-0.02-23.05,0.02-34.57c0.01-1.56-0.48-2.12-2.09-2.1c-6.04,0.1-12.08,0.09-18.11,0.08
		c-9.93,0-19.87-0.05-29.8-0.05c-9.82,0-19.65,0.05-29.47,0.05c-9.93,0-19.87-0.05-29.8-0.05c-9.82,0-19.65,0.05-29.47,0.05
		c-9.93,0-19.87-0.05-29.8-0.05c-9.82,0-19.65,0.04-29.47,0.05c-13.12,0.01-26.24,0.02-39.35-0.02c-1.18,0-1.65,0.3-1.64,1.56
		c0.05,7.85,0.02,15.69,0.03,23.54c0.01,9.82,0.05,19.65,0.05,29.47c0,9.88-0.05,19.76-0.05,29.63c0,9.82,0.05,19.65,0.05,29.47
		c0,9.93-0.05,19.87-0.05,29.8c0,9.82,0.03,19.65,0.05,29.47C16.38,218.52,16.38,220.48,16.38,222.67z M184.71,11.26
		c-6.69-0.05-10.8,5.16-10.79,10.72c0.02,5.52,3.77,10.3,10.42,10.6c6.69,0.3,10.96-5.12,11.12-10.64
		C195.61,16.7,190.78,10.96,184.71,11.26z M244.37,11.26c-5.5-0.39-10.71,4.96-10.71,10.52c0,5.15,4.49,10.89,10.5,10.79
		c6.49-0.11,10.92-4.4,11.03-10.74C255.28,16.27,250.69,11.17,244.37,11.26z M204.06,21.73c-0.64,6.23,4.99,10.86,10.71,10.88
		c6.07,0.01,10.5-5.71,10.38-10.11c-0.17-6.59-4.34-11.06-10.42-11.3C209.72,11.01,203.41,15.88,204.06,21.73z"/>
	<path class="st0" d="M113.69,161.02c-2.05-0.83-3.85-1.51-5.61-2.27c-6.58-2.83-13.16-5.66-19.73-8.52
		c-7.31-3.19-14.6-6.42-21.91-9.62c-3.67-1.61-7.38-3.14-11.03-4.79c-0.45-0.2-0.97-0.9-0.98-1.37c-0.06-4.17-0.05-8.34,0.04-12.51
		c0.01-0.46,0.5-1.12,0.93-1.31c6.2-2.75,12.42-5.43,18.64-8.13c4.42-1.92,8.84-3.86,13.26-5.78c7.62-3.3,15.24-6.58,22.85-9.87
		c1.11-0.48,2.21-0.99,3.66-1.64c0,2.04,0,3.62,0,5.2c0,3.51-0.01,7.02,0,10.53c0,0.9-0.2,1.45-1.2,1.83
		c-7.5,2.79-14.97,5.68-22.45,8.54c-5.26,2.01-10.53,4.02-15.78,6.05c-0.43,0.17-0.82,0.47-1.51,0.87c5.67,2.17,11.07,4.2,16.46,6.3
		c3.44,1.34,6.85,2.78,10.28,4.15c4.17,1.67,8.33,3.35,12.52,4.94c1.18,0.45,1.74,1,1.72,2.36c-0.08,4.39-0.03,8.78-0.04,13.17
		C113.79,159.62,113.74,160.11,113.69,161.02z"/>
	<path class="st0" d="M158.02,161.05c-0.05-0.77-0.11-1.25-0.11-1.73c-0.01-4.5,0.05-9-0.04-13.5c-0.02-1.27,0.62-1.75,1.59-2.13
		c4.94-1.93,9.89-3.87,14.84-5.79c5.76-2.24,11.53-4.47,17.29-6.71c2.34-0.91,4.68-1.85,7.02-2.78c-0.01-0.15-0.01-0.31-0.02-0.46
		c-5.96-2.24-11.94-4.44-17.87-6.74c-5.81-2.25-11.58-4.61-17.38-6.91c-1.46-0.58-2.97-1.01-4.4-1.65c-0.44-0.2-0.97-0.85-0.98-1.29
		c-0.06-4.88-0.04-9.77-0.02-14.65c0-0.25,0.16-0.49,0.34-0.98c2.22,0.92,4.36,1.78,6.48,2.69c8.27,3.59,16.52,7.21,24.79,10.8
		c6.57,2.85,13.14,5.68,19.72,8.5c2.29,0.98,4.65,1.84,6.9,2.91c0.53,0.25,1.1,1.1,1.11,1.68c0.08,4.06,0.05,8.12-0.02,12.18
		c-0.01,0.45-0.44,1.1-0.84,1.29c-4.4,2.01-8.82,3.97-13.25,5.9c-8.12,3.53-16.25,7.02-24.37,10.54
		c-6.38,2.77-12.76,5.55-19.14,8.32C159.21,160.71,158.74,160.82,158.02,161.05z"/>
	<path class="st0" d="M151.34,89.63c-0.4,1.8-0.96,4.35-1.54,6.89c-0.58,2.54-1.16,5.07-1.76,7.6c-0.5,2.1-1.03,4.19-1.55,6.28
		c-0.8,3.21-1.59,6.43-2.4,9.64c-0.82,3.27-1.7,6.52-2.49,9.8c-0.75,3.09-1.39,6.21-2.13,9.31c-0.71,2.96-1.51,5.9-2.23,8.86
		c-0.6,2.46-1.13,4.94-1.72,7.4c-0.74,3.06-1.48,6.11-2.29,9.15c-0.43,1.61-0.84,3.27-1.56,4.76c-1.28,2.63-3.62,3.58-6.43,2.91
		c-4.49-1.07-5.61-3.22-4.43-7.78c0.89-3.42,1.42-6.93,2.21-10.38c0.7-3.06,1.58-6.07,2.33-9.12c0.58-2.37,1.05-4.77,1.6-7.14
		c0.69-2.95,1.41-5.89,2.16-8.83c0.55-2.15,1.19-4.28,1.73-6.44c0.88-3.58,1.71-7.18,2.56-10.77c0.92-3.86,1.77-7.74,2.77-11.58
		c1.23-4.73,2.41-9.48,3.95-14.11c0.91-2.73,4.15-3.78,6.94-2.76C150.36,84.53,151.37,85.83,151.34,89.63z"/>
</g>
</svg>
