<?xml version="1.0" encoding="utf-8"?>
<!-- Generator: Adobe Illustrator 27.1.1, SVG Export Plug-In . SVG Version: 6.00 Build 0)  -->
<svg version="1.1" id="Lager_1" xmlns="http://www.w3.org/2000/svg" xmlns:xlink="http://www.w3.org/1999/xlink" x="0px" y="0px"
	 viewBox="0 0 271.71 272.35" style="enable-background:new 0 0 271.71 272.35;" xml:space="preserve">
<style type="text/css">
	.st0{fill:#FFFFFF;}
</style>
<g>
	<path class="st0" d="M271.63,52.11c-0.03-2.75-0.29-5.6-1.08-8.21c-1.8-5.95-8.31-10.7-14.8-10.7c-39.97,0.01-79.93,0-119.9,0
		c-22.92,0-55.83,0-78.75,0C67.24,45.96,78.8,62.63,89.9,76.76c8.89,0.01,17.78,0.04,26.67,0.04c9.82,0,19.65-0.05,29.47-0.05
		c9.93,0,19.87,0.05,29.8,0.05c9.82,0,19.65-0.05,29.47-0.05c9.93,0,19.87,0.04,29.8,0.05c6.04,0,12.08,0.01,18.11-0.08
		c1.61-0.03,2.09,0.54,2.09,2.1c-0.04,11.52-0.03,23.05-0.02,34.57c0.01,16.41,0.05,32.82,0.05,49.22c0,16.52-0.04,33.04-0.05,49.55
		c-0.01,13.94-0.03,27.88,0.04,41.82c0.01,1.59-0.49,1.89-1.94,1.89c-78.45-0.03-156.89-0.03-235.34-0.03c-0.49,0-0.98,0-1.7,0
		c0-2.19,0-4.15,0-6.11c-0.02-9.82-0.05-19.65-0.05-29.47c0-9.93,0.05-19.87,0.05-29.8c0-9.82-0.05-19.65-0.05-29.47
		c0-9.88,0.05-19.76,0.05-29.63c0-9.82-0.04-19.65-0.05-29.47c-0.01-7.85,0.02-15.7-0.03-23.54c-0.01-1.26,0.47-1.57,1.64-1.56
		c13.12,0.03,26.24,0.03,39.35,0.02c0.01,0,0.03,0,0.04,0C50,61.83,41.87,47.73,34.73,33.19c-5.87,0-11.75,0-17.62-0.01
		c-2.5,0-4.84,0.46-7.12,1.38c-5.67,2.28-9.89,8.1-9.88,14.55c0.01,9.38-0.09,18.76-0.09,28.15c0,9.6,0.09,19.2,0.09,28.8
		c0,9.88-0.09,19.75-0.09,29.63c0,9.82,0.09,19.64,0.09,29.46c0,9.71-0.09,19.42-0.09,29.13c0,10.64,0.09,21.29,0.09,31.93
		c0,9.71-0.03,19.42-0.11,29.13c-0.03,4.32,1.22,8.16,4.09,11.4c2.98,3.37,6.77,5.55,11.24,5.56c80.37,0.07,160.74,0.06,241.11,0.02
		c1.49,0,3.07-0.33,4.44-0.92c7.15-3.06,10.85-8.4,10.72-16.34c-0.13-7.79-0.04-15.58-0.02-23.37c0.02-9.88,0.09-19.75,0.09-29.63
		c0-9.88-0.08-19.75-0.08-29.63c0-9.88,0.08-19.75,0.08-29.63c0-9.88-0.08-19.75-0.08-29.63c0-9.88,0.07-19.75,0.09-29.63
		C271.69,73.06,271.75,62.58,271.63,52.11z M184.35,65.75c-6.65-0.29-10.4-5.08-10.42-10.6c-0.02-5.56,4.1-10.76,10.79-10.72
		c6.07-0.3,10.9,5.43,10.75,10.67C195.31,60.63,191.04,66.05,184.35,65.75z M214.77,65.79c-5.72-0.01-11.35-4.64-10.71-10.88
		c-0.65-5.86,5.67-10.73,10.67-10.53c6.08,0.24,10.25,4.71,10.42,11.3C225.27,60.08,220.84,65.8,214.77,65.79z M244.15,65.75
		c-6.01,0.1-10.5-5.64-10.5-10.79c0-5.56,5.21-10.91,10.71-10.52c6.32-0.09,10.91,5.01,10.82,10.58
		C255.08,61.35,250.64,65.64,244.15,65.75z"/>
</g>
<g>
	<path class="st0" d="M103.38,156.93c3.72-2.59,7.17-5.28,10.9-7.5c3.72-2.21,7.73-3.95,11.8-6c-0.69-1.24-1.41-2.64-2.22-3.99
		c-11.21-18.66-23.49-36.63-35.9-54.49C69.23,58.01,50.25,31.24,31.37,4.41c-0.81-1.14-1.7-2.23-2.53-3.35
		c-0.53-0.72-1.05-1.44-2.07-0.83c-0.93,0.56-0.83,1.33-0.43,2.21c2.4,5.17,4.69,10.39,7.18,15.51
		c16.37,33.61,32.64,67.27,49.25,100.77c6.21,12.53,13.21,24.67,19.85,36.99C102.86,156.13,103.14,156.54,103.38,156.93z"/>
	<path class="st0" d="M191.75,240.28c2.4,0,4.81-0.05,7.21,0.02c1.09,0.03,1.73-0.52,1.69-1.43c-0.03-0.54-0.71-1.32-1.26-1.5
		c-2.83-0.95-5.77-1.59-8.58-2.62c-7.45-2.72-12.35-8.12-15.22-15.36c-1.48-3.73-2.35-7.7-3.77-11.46
		c-3.19-8.42-10.63-13.13-19.81-12.76c-9.27,0.37-17.33,8.05-18.29,17.32c-0.69,6.61,1.18,12.26,6.14,16.72
		c3.97,3.57,8.76,5.69,13.85,7.11c9.5,2.65,19.25,3.49,29.06,3.7c3,0.07,6,0.01,8.99,0.01C191.75,240.12,191.75,240.2,191.75,240.28
		z"/>
	<path class="st0" d="M135.69,201.02c3.61-4.29,7.7-7.05,13.19-7.95c-6.87-15.12-13.66-30.06-20.46-45.01
		c-4.9,0.67-18.46,8.61-22.23,13.06C115.96,174.34,125.74,187.57,135.69,201.02z"/>
</g>
</svg>
