<?xml version="1.0" encoding="utf-8"?>
<!-- Generator: Adobe Illustrator 26.5.0, SVG Export Plug-In . SVG Version: 6.00 Build 0)  -->
<svg version="1.1" id="Lager_1" xmlns="http://www.w3.org/2000/svg" xmlns:xlink="http://www.w3.org/1999/xlink" x="0px" y="0px"
	 viewBox="0 0 51.69 51.56" style="enable-background:new 0 0 51.69 51.56;" xml:space="preserve">
<style type="text/css">
	.st0{fill:#ffffff;}
</style>
<path id="rect3687" class="st0" d="M14.96,0C6.71,0,0,6.71,0,14.96V36.6c0,8.25,6.71,14.96,14.96,14.96h21.77
	c8.25,0,14.96-6.71,14.96-14.96V14.96C51.69,6.71,44.98,0,36.73,0H14.96z M14.96,4.43h21.77c5.87,0,10.53,4.66,10.53,10.53V36.6
	c0,5.87-4.66,10.53-10.53,10.53H14.96c-5.87,0-10.53-4.66-10.53-10.53V14.96C4.43,9.09,9.09,4.43,14.96,4.43z M39.72,8.87
	c-1.71,0-3.1,1.39-3.1,3.1c0,1.71,1.39,3.1,3.1,3.1s3.1-1.39,3.1-3.1C42.82,10.25,41.43,8.87,39.72,8.87z M25.84,12.51
	c-7.31,0-13.28,5.97-13.28,13.28c0,7.31,5.97,13.28,13.28,13.28s13.28-5.97,13.28-13.28S33.15,12.51,25.84,12.51z M25.84,16.94
	c4.91,0,8.85,3.93,8.85,8.84c0,4.91-3.94,8.84-8.85,8.84c-4.91,0-8.84-3.93-8.84-8.84C17,20.87,20.93,16.94,25.84,16.94z"/>
</svg>
