<?xml version="1.0" encoding="utf-8"?>
<!-- Generator: Adobe Illustrator 26.5.0, SVG Export Plug-In . SVG Version: 6.00 Build 0)  -->
<svg version="1.1" id="Lager_1" xmlns="http://www.w3.org/2000/svg" xmlns:xlink="http://www.w3.org/1999/xlink" x="0px" y="0px"
	 viewBox="0 0 50.79 51.1" style="enable-background:new 0 0 50.79 51.1;" xml:space="preserve">
<style type="text/css">
	.st0{fill:#ffffff;}
</style>
<path id="path4157" class="st0" d="M3.76,0C1.68,0,0,1.63,0,3.66v43.79c0,2.02,1.68,3.66,3.76,3.66h43.28
	c2.07,0,3.76-1.63,3.76-3.66V3.66c0-2.02-1.68-3.66-3.76-3.66H3.76z M11.61,8.58c2.62,0,4.23,1.72,4.28,3.98
	c0,2.21-1.66,3.98-4.34,3.98h-0.04c-2.57,0-4.24-1.77-4.24-3.98C7.27,10.3,8.99,8.58,11.61,8.58L11.61,8.58z M34.23,19.16
	c5.05,0,8.82,3.3,8.82,10.39v13.23h-7.67V30.43c0-3.1-1.11-5.22-3.88-5.22c-2.12,0-3.39,1.44-3.94,2.82
	c-0.2,0.49-0.24,1.17-0.24,1.86v12.89h-7.68c0,0,0.1-20.91,0-23.08h7.68v3.26C28.34,21.39,30.16,19.16,34.23,19.16L34.23,19.16z
	 M27.32,22.96c-0.02,0.03-0.04,0.06-0.06,0.09h0.06V22.96z M7.73,19.7h7.67v23.08H7.73V19.7L7.73,19.7z"/>
</svg>
