<?xml version="1.0" encoding="utf-8"?>
<!-- Generator: Adobe Illustrator 27.1.1, SVG Export Plug-In . SVG Version: 6.00 Build 0)  -->
<svg version="1.1" id="Lager_1" xmlns="http://www.w3.org/2000/svg" xmlns:xlink="http://www.w3.org/1999/xlink" x="0px" y="0px"
	 viewBox="0 0 58.95 58.95" style="enable-background:new 0 0 58.95 58.95;" xml:space="preserve">
<style type="text/css">
	.st0{fill:#F47820;}
	.st1{fill:#FFFFFF;}
</style>
<rect class="st0" width="58.95" height="58.95"/>
<g>
	<path class="st1" d="M13.95,39.71V19.09h5.66v15.68h9.35v4.94H13.95z"/>
	<path class="st1" d="M33.29,33.96c0.12,0.08,0.48,0.24,1.1,0.49c0.62,0.25,1.35,0.38,2.18,0.38c0.6,0,1.08-0.1,1.45-0.3
		c0.37-0.2,0.64-0.51,0.83-0.93c0.18-0.42,0.31-0.97,0.38-1.65c0.07-0.68,0.1-1.51,0.1-2.48V19.09h5.66v10.4
		c0,1.56-0.09,2.97-0.28,4.23c-0.18,1.27-0.56,2.36-1.12,3.28c-0.56,0.92-1.4,1.63-2.53,2.12c-1.12,0.49-2.62,0.73-4.5,0.73
		c-0.89,0-1.7-0.11-2.44-0.32c-0.74-0.21-1.41-0.53-2.03-0.96L33.29,33.96z"/>
</g>
</svg>
